<svg width="30" height="30" viewBox="0 0 30 30" fill="none" xmlns="http://www.w3.org/2000/svg">
<path d="M13.3491 9.375C12.2142 10.9425 11.5419 12.8888 11.5419 15C11.539 17.029 12.1734 19.0036 13.3491 20.625L6.12021 20.625C4.68228 20.625 3.30326 20.0324 2.28649 18.9775C1.26973 17.9226 0.698519 16.4918 0.698519 15C0.698519 13.5082 1.26973 12.0774 2.28649 11.0225C3.30326 9.96763 4.68228 9.375 6.12021 9.375L13.3491 9.375Z" fill="#007BFF"/>
<path d="M20.5781 7.5C22.4953 7.5 24.334 8.29018 25.6897 9.6967C27.0454 11.1032 27.807 13.0109 27.807 15C27.807 16.9891 27.0454 18.8968 25.6897 20.3033C24.334 21.7098 22.4953 22.5 20.5781 22.5C18.6609 22.5 16.8222 21.7098 15.4665 20.3033C14.1108 18.8968 13.3492 16.9891 13.3492 15C13.3492 13.0109 14.1108 11.1032 15.4665 9.6967C16.8222 8.29018 18.6609 7.5 20.5781 7.5ZM20.5781 5.625C18.1816 5.625 15.8832 6.61272 14.1886 8.37087C12.494 10.129 11.542 12.5136 11.542 15C11.542 17.4864 12.494 19.871 14.1886 21.6291C15.8832 23.3873 18.1816 24.375 20.5781 24.375C22.9746 24.375 25.273 23.3873 26.9676 21.6291C28.6622 19.871 29.6143 17.4864 29.6143 15C29.6143 12.5136 28.6622 10.129 26.9676 8.37087C25.273 6.61272 22.9746 5.625 20.5781 5.625Z" fill="#007BFF"/>
</svg>
