<svg width="14" height="15" viewBox="0 0 14 15" fill="none" xmlns="http://www.w3.org/2000/svg">
<path d="M1.08333 1.66675V4.00008H0V5.16675H1.08333V6.33341H0V7.50008H1.08333V13.3334H2.16667V9.83341H5.41667C6.87917 9.83341 8.21167 8.92341 8.84 7.50008H10.2917V6.33341H9.165C9.22458 5.94841 9.22458 5.55175 9.165 5.16675H10.2917V4.00008H8.84C8.21167 2.57675 6.87917 1.66675 5.41667 1.66675M2.16667 2.83341H5.41667C6.26708 2.83341 7.07417 3.26508 7.58333 4.00008H2.16667V2.83341ZM5.41667 8.66675H2.16667V7.50008H7.58333C7.07417 8.23508 6.26708 8.66675 5.41667 8.66675ZM8.125 5.75008C8.125 5.94841 8.10333 6.14091 8.07083 6.33341H2.16667V5.16675H8.07083C8.10333 5.35925 8.125 5.55175 8.125 5.75008Z" fill="white"/>
</svg>
