<svg width="288" height="89" viewBox="0 0 288 89" fill="none" xmlns="http://www.w3.org/2000/svg">
<path d="M271.135 29.5068C270.568 28.5787 268.116 29.5724 267.665 28.7302C267.216 27.891 269.494 26.6123 270.796 23.6913C271.031 23.1646 272.511 19.8451 271.415 18.8208C269.339 16.8793 259.839 24.8914 256.515 22.2695C255.785 21.6941 255.275 20.5454 253.067 18.6804C252.188 17.9385 251.657 17.6035 251.143 17.7281C250.414 17.9049 250.356 18.8527 249.574 20.7163C248.401 23.511 247.707 23.3423 247.023 25.572C246.516 27.2273 246.632 28.1896 246.035 28.3771C245.19 28.6424 244.412 26.8867 243.341 27.0439C242.249 27.2043 241.588 29.2486 241.38 30.7791C240.988 33.6513 242.074 35.5465 242.677 37.5394C243.331 39.7051 243.72 42.9988 242.208 47.6614L227.249 88.5767C230.552 80.181 240.114 57.1661 244.132 48.6136C245.292 46.1447 246.573 43.6405 249.202 42.6521C251.734 41.7005 255.211 42.2687 259.644 41.232C260.162 41.1109 261.599 40.7561 261.779 39.9357C261.929 39.2575 261.084 38.879 261.214 38.2438C261.388 37.3918 263.05 37.3813 265.092 36.3984C266.532 35.7052 267.429 34.8809 268.2 34.1721C268.433 33.9583 271.89 30.7421 271.135 29.5068Z" fill="#F2F2F2"/>
<path d="M212.283 51.0463C211.65 51.0487 211.445 52.504 210.889 52.4758C210.335 52.4478 210.346 50.9931 209.245 49.5299C209.046 49.2661 207.795 47.6034 206.961 47.8297C205.381 48.2587 206.69 55.0969 204.405 55.9245C203.904 56.1061 203.176 56.0176 201.596 56.5316C200.967 56.7361 200.645 56.8925 200.56 57.1735C200.438 57.5721 200.901 57.8731 201.617 58.7834C202.692 60.1488 202.406 60.4307 203.336 61.3997C204.027 62.119 204.547 62.3415 204.469 62.68C204.36 63.1592 203.248 63.0231 203.018 63.5786C202.784 64.1455 203.627 65.0501 204.341 65.5911C205.68 66.6064 206.951 66.6356 208.133 66.9236C209.417 67.2367 211.194 68.002 213.115 70.0674L229.485 89.0002C226.193 85.0042 217.316 73.8076 214.152 69.4255C213.238 68.1605 212.341 66.8277 212.601 65.2895C212.85 63.8086 214.14 62.3158 214.895 59.9046C214.984 59.623 215.219 58.8361 214.856 58.5132C214.556 58.2463 214.121 58.5397 213.837 58.2946C213.457 57.9658 213.931 57.171 214.023 55.9143C214.088 55.0283 213.931 54.363 213.795 53.7909C213.754 53.6184 213.125 51.0432 212.283 51.0463Z" fill="#F2F2F2"/>
<path d="M224.907 53.7972L224.525 50.4934L224.7 50.243C225.506 49.0848 225.916 47.9538 225.921 46.8802C225.922 46.7095 225.914 46.5388 225.906 46.3649C225.873 45.6757 225.832 44.8191 226.292 43.8205C226.55 43.2637 227.275 41.9747 228.364 42.1343C228.657 42.1742 228.879 42.305 229.048 42.4581C229.072 42.4198 229.098 42.3815 229.125 42.34C229.464 41.8375 229.733 41.6222 229.992 41.4148C230.191 41.2553 230.396 41.091 230.718 40.7017C230.859 40.531 230.969 40.3811 231.062 40.2551C231.344 39.8738 231.712 39.4191 232.361 39.4271C233.055 39.459 233.418 40.0158 233.659 40.3843C234.088 41.0415 234.283 41.5153 234.412 41.8296C234.459 41.9444 234.512 42.0736 234.539 42.1135C234.763 42.4326 236.58 42.1342 237.264 42.0258C238.801 41.7769 240.132 41.5616 240.68 42.5028C241.072 43.1759 240.781 44.0661 239.786 45.2195C239.477 45.5784 239.147 45.8512 238.855 46.065C239.097 46.2054 239.314 46.4207 239.402 46.7589C239.609 47.5597 238.9 48.3622 237.295 49.147C236.897 49.3432 236.36 49.6049 235.608 49.7309C235.254 49.7899 234.935 49.8043 234.663 49.8123C234.657 49.9654 234.62 50.1313 234.524 50.302C234.242 50.8045 233.655 51.0438 232.771 50.9864C231.799 50.9369 230.997 50.7567 230.291 50.5987C229.674 50.4615 229.142 50.3451 228.725 50.3722C227.951 50.4328 227.354 51.0342 226.654 51.8143L224.907 53.7972Z" fill="#F2F2F2"/>
<path d="M226.675 34.1264L223.48 35.3224L223.186 35.2223C221.828 34.7592 220.597 34.6603 219.526 34.928C219.355 34.9706 219.187 35.0216 219.016 35.0734C218.338 35.279 217.495 35.5349 216.383 35.3561C215.763 35.2551 214.295 34.9015 214.177 33.838C214.143 33.5525 214.217 33.311 214.326 33.114C214.282 33.1005 214.237 33.0863 214.189 33.0714C213.602 32.8802 213.32 32.6825 213.047 32.4921C212.838 32.3458 212.622 32.1946 212.153 31.9909C211.947 31.9015 211.769 31.8362 211.62 31.7809C211.169 31.613 210.623 31.3827 210.466 30.7711C210.322 30.1119 210.784 29.6296 211.09 29.3101C211.636 28.7398 212.059 28.4368 212.339 28.236C212.442 28.1629 212.557 28.0799 212.59 28.0443C212.851 27.7536 212.093 26.1233 211.812 25.5082C211.174 24.1277 210.622 22.9332 211.421 22.1799C211.992 21.6403 212.953 21.6884 214.354 22.3294C214.79 22.5293 215.146 22.7695 215.433 22.9899C215.511 22.7267 215.671 22.4684 215.986 22.3001C216.731 21.9025 217.71 22.3648 218.899 23.6726C219.196 23.997 219.593 24.4344 219.909 25.1084C220.058 25.426 220.153 25.7217 220.23 25.9758C220.384 25.9424 220.559 25.935 220.753 25.982C221.325 26.1192 221.713 26.6094 221.88 27.4541C222.077 28.3802 222.101 29.1782 222.123 29.8817C222.142 30.496 222.161 31.0247 222.294 31.4098C222.551 32.1212 223.301 32.5288 224.256 32.9882L226.675 34.1264Z" fill="#F2F2F2"/>
<path d="M224.907 24.3934L224.525 21.0896L224.7 20.8392C225.506 19.681 225.916 18.55 225.921 17.4763C225.922 17.3057 225.914 17.135 225.906 16.9611C225.873 16.2719 225.832 15.4153 226.292 14.4166C226.55 13.8599 227.275 12.5709 228.364 12.7305C228.657 12.7703 228.879 12.9011 229.048 13.0543C229.072 13.016 229.098 12.9777 229.125 12.9362C229.464 12.4337 229.733 12.2184 229.992 12.011C230.191 11.8515 230.396 11.6872 230.718 11.2979C230.859 11.1272 230.969 10.9773 231.062 10.8512C231.344 10.47 231.712 10.0153 232.361 10.0233C233.055 10.0552 233.418 10.6119 233.659 10.9805C234.088 11.6377 234.283 12.1115 234.412 12.4258C234.459 12.5406 234.512 12.6698 234.539 12.7097C234.763 13.0288 236.58 12.7304 237.264 12.622C238.801 12.3731 240.132 12.1577 240.68 13.0989C241.072 13.7721 240.781 14.6623 239.786 15.8157C239.477 16.1746 239.147 16.4474 238.855 16.6612C239.097 16.8016 239.314 17.0169 239.402 17.3551C239.609 18.1559 238.9 18.9583 237.295 19.7432C236.897 19.9394 236.36 20.2011 235.608 20.3271C235.254 20.3861 234.935 20.4005 234.663 20.4085C234.657 20.5616 234.62 20.7275 234.524 20.8982C234.242 21.4007 233.655 21.64 232.771 21.5826C231.799 21.5331 230.997 21.3528 230.291 21.1949C229.674 21.0577 229.142 20.9413 228.725 20.9684C227.951 21.029 227.354 21.6304 226.654 22.4105L224.907 24.3934Z" fill="#F2F2F2"/>
<path d="M228.389 88.5227L227.676 88.0888L226.844 88.1813C226.831 88.1063 226.786 87.934 226.718 87.6644C226.345 86.1872 225.211 81.6918 224.264 74.612C223.604 69.6699 223.23 64.589 223.152 59.5081C223.075 54.4192 223.323 50.5667 223.522 47.4703C223.673 45.1348 223.855 42.911 224.034 40.7447C224.511 34.957 224.96 29.4901 224.626 23.4377C224.552 22.0865 224.396 19.2741 222.704 16.2814C221.722 14.5457 220.37 13.0047 218.684 11.703L219.732 10.4236C221.593 11.8625 223.089 13.5694 224.18 15.4965C226.056 18.8146 226.225 21.8792 226.307 23.3516C226.647 29.5109 226.193 35.0305 225.711 40.8739C225.534 43.0323 225.351 45.2465 225.202 47.5724C225.004 50.6401 224.759 54.4591 224.835 59.4826C224.911 64.5029 225.28 69.5215 225.932 74.4015C226.867 81.3919 227.985 85.8203 228.353 87.2752C228.548 88.0521 228.589 88.2148 228.389 88.5227Z" fill="#F2F2F2"/>
<path d="M215.597 14.2986C215.528 14.2986 215.459 14.297 215.388 14.2922C213.955 14.2172 212.628 13.3845 211.443 11.818C210.888 11.0809 210.604 10.2402 210.037 8.56362C209.949 8.30519 209.522 6.99389 209.262 5.18965C209.092 4.01075 209.113 3.51782 209.354 3.08232C209.621 2.59735 210.053 2.25916 210.54 2.03105C210.518 1.8747 210.535 1.71358 210.605 1.54927C210.892 0.868097 211.654 0.957437 212.067 1.00051C212.276 1.02603 212.536 1.05953 212.817 1.04517C213.259 1.02444 213.497 0.896801 213.856 0.705367C214.201 0.521911 214.629 0.293791 215.264 0.167766C216.516 -0.0858767 217.565 0.258703 217.911 0.371952C219.731 0.960603 220.628 2.33412 221.667 3.92459C221.874 4.24364 222.585 5.40498 223.054 6.99705C223.392 8.14564 223.345 8.65613 223.243 9.0358C223.036 9.81588 222.547 10.2625 221.305 11.2484C220.009 12.2806 219.358 12.7974 218.799 13.1117C217.499 13.8407 216.682 14.2986 215.597 14.2986Z" fill="#F2F2F2"/>
<path d="M287.423 87.78C287.423 88.0824 287.17 88.3276 286.859 88.3276H0.564069C0.252546 88.3276 0 88.0824 0 87.78C0 87.4776 0.252539 87.2324 0.564069 87.2324H286.859C287.17 87.2324 287.423 87.4776 287.423 87.78Z" fill="#E6E6E6"/>
</svg>
