<svg width="30" height="30" viewBox="0 0 30 30" fill="none" xmlns="http://www.w3.org/2000/svg">
<rect x="0.385498" width="28.9157" height="30" rx="6" fill="white"/>
<path opacity="0.4" d="M21.3336 17.075L20.5002 15.6916C20.3252 15.3833 20.1669 14.8 20.1669 14.4583V12.35C20.1669 9.63329 17.9586 7.41663 15.2336 7.41663C12.5086 7.41663 10.3002 9.63329 10.3002 12.35V14.4583C10.3002 14.8 10.1419 15.3833 9.96691 15.6833L9.12525 17.075C8.79191 17.6333 8.71691 18.25 8.92525 18.8166C9.12525 19.375 9.60025 19.8083 10.2169 20.0166C11.8336 20.5666 13.5336 20.8333 15.2336 20.8333C16.9336 20.8333 18.6336 20.5666 20.2502 20.025C20.8336 19.8333 21.2836 19.3916 21.5002 18.8166C21.7169 18.2416 21.6586 17.6083 21.3336 17.075Z" fill="#007BFF"/>
<path d="M17.0919 7.76663C16.5169 7.54163 15.8919 7.41663 15.2335 7.41663C14.5835 7.41663 13.9585 7.53329 13.3835 7.76663C13.7419 7.09163 14.4502 6.66663 15.2335 6.66663C16.0252 6.66663 16.7252 7.09163 17.0919 7.76663Z" fill="#007BFF"/>
<path d="M17.575 21.675C17.225 22.6416 16.3 23.3333 15.2167 23.3333C14.5584 23.3333 13.9084 23.0666 13.45 22.5916C13.1834 22.3416 12.9834 22.0083 12.8667 21.6666C12.975 21.6833 13.0834 21.6916 13.2 21.7083C13.3917 21.7333 13.5917 21.7583 13.7917 21.775C14.2667 21.8166 14.75 21.8416 15.2334 21.8416C15.7084 21.8416 16.1834 21.8166 16.65 21.775C16.825 21.7583 17 21.75 17.1667 21.725C17.3 21.7083 17.4334 21.6916 17.575 21.675Z" fill="#007BFF"/>
</svg>
