<svg width="320" height="50" viewBox="0 0 320 50" fill="none" xmlns="http://www.w3.org/2000/svg">
<rect width="320" height="50" rx="10" fill="white"/>
<path d="M294.5 34.75C288.85 34.75 284.25 30.15 284.25 24.5C284.25 18.85 288.85 14.25 294.5 14.25C300.15 14.25 304.75 18.85 304.75 24.5C304.75 30.15 300.15 34.75 294.5 34.75ZM294.5 15.75C289.67 15.75 285.75 19.68 285.75 24.5C285.75 29.32 289.67 33.25 294.5 33.25C299.33 33.25 303.25 29.32 303.25 24.5C303.25 19.68 299.33 15.75 294.5 15.75Z" fill="#292D32"/>
<path d="M305 35.7499C304.81 35.7499 304.62 35.6799 304.47 35.5299L302.47 33.5299C302.18 33.2399 302.18 32.7599 302.47 32.4699C302.76 32.1799 303.24 32.1799 303.53 32.4699L305.53 34.4699C305.82 34.7599 305.82 35.2399 305.53 35.5299C305.38 35.6799 305.19 35.7499 305 35.7499Z" fill="#292D32"/>
</svg>
