<svg width="30" height="30" viewBox="0 0 30 30" fill="none" xmlns="http://www.w3.org/2000/svg">
<path d="M16.2628 28.125C15.5128 28.125 14.3504 27.7625 13.2379 25.9375L11.0378 22.375C10.8253 22.025 10.1753 21.6875 9.77533 21.7125L5.60029 21.925C3.10029 22.05 2.22536 21.0125 1.91286 20.3875C1.60036 19.7625 1.3253 18.425 2.9503 16.525L5.42535 13.6501C5.67535 13.3501 5.81282 12.7 5.70032 12.325L4.4378 8.28754C3.8003 6.26254 4.51281 5.17505 4.98781 4.70005C5.46281 4.22505 6.56281 3.53753 8.58781 4.21253L12.2753 5.42503C12.6128 5.53753 13.2378 5.43754 13.5253 5.23754L17.3753 2.46254C19.1378 1.18754 20.4128 1.52504 21.0003 1.83754C21.5878 2.15004 22.5878 3.00006 22.5503 5.17506L22.4628 9.91253C22.4503 10.2625 22.7378 10.8375 23.0128 11.05L26.1128 13.4C27.8003 14.6875 27.8628 15.975 27.7503 16.6375C27.6378 17.3 27.1379 18.5 25.1129 19.125L21.0753 20.3875C20.7003 20.5 20.2378 20.9875 20.1378 21.3625L19.1754 25.0375C18.5379 27.45 17.2878 27.9875 16.5878 28.0875C16.5003 28.1125 16.3878 28.125 16.2628 28.125ZM9.81279 19.8375C10.8878 19.8375 12.0753 20.4875 12.6253 21.3875L14.8253 24.95C15.4503 25.975 16.0128 26.2875 16.3128 26.2375C16.6003 26.2 17.0503 25.725 17.3628 24.575L18.3253 20.9C18.5878 19.9 19.5253 18.9126 20.5128 18.6126L24.5503 17.35C25.3253 17.1125 25.8253 16.725 25.9003 16.325C25.9753 15.925 25.6253 15.4001 24.9753 14.9001L21.8753 12.55C21.1128 11.975 20.5628 10.825 20.5753 9.87503L20.6629 5.13752C20.6754 4.30002 20.4754 3.67505 20.1129 3.48755C19.7504 3.30005 19.1378 3.48753 18.4503 3.97503L14.6003 6.75003C13.8378 7.30003 12.5753 7.50005 11.6628 7.20005L7.97533 5.98755C7.20033 5.73755 6.57536 5.75002 6.28786 6.03752C6.00036 6.32502 5.97528 6.95003 6.21278 7.72503L7.47529 11.7625C7.78779 12.75 7.51278 14.0876 6.83778 14.8626L4.36281 17.7375C3.57531 18.65 3.45031 19.2876 3.58781 19.5501C3.71281 19.8126 4.31285 20.1 5.50035 20.0375L9.67531 19.825C9.72531 19.8375 9.77529 19.8375 9.81279 19.8375Z" fill="#292D32"/>
<path d="M27.3874 28.4376C27.1499 28.4376 26.9124 28.3501 26.7249 28.1626L22.9374 24.3751C22.5749 24.0126 22.5749 23.4126 22.9374 23.0501C23.2999 22.6876 23.8999 22.6876 24.2624 23.0501L28.0499 26.8376C28.4124 27.2001 28.4124 27.8001 28.0499 28.1626C27.8624 28.3501 27.6249 28.4376 27.3874 28.4376Z" fill="#292D32"/>
</svg>
