<svg width="24" height="25" viewBox="0 0 24 25" fill="none" xmlns="http://www.w3.org/2000/svg">
<path d="M17.29 4.63998L17.22 8.42998C17.21 8.94998 17.54 9.63998 17.96 9.94998L20.44 11.83C22.03 13.03 21.77 14.5 19.87 15.1L16.64 16.11C16.1 16.28 15.53 16.87 15.39 17.42L14.62 20.36C14.01 22.68 12.49 22.91 11.23 20.87L9.46999 18.02C9.14999 17.5 8.39 17.11 7.79 17.14L4.45003 17.31C2.06003 17.43 1.38002 16.05 2.94002 14.23L4.92 11.93C5.29 11.5 5.46 10.7 5.29 10.16L4.28005 6.92998C3.69005 5.02998 4.75004 3.97999 6.64004 4.59999L9.59005 5.56999C10.09 5.72999 10.84 5.61998 11.26 5.30998L14.34 3.08998C16 1.88998 17.33 2.58998 17.29 4.63998Z" fill="#FFF500"/>
<path opacity="0.4" d="M21.44 20.9699L18.4099 17.9399C18.1199 17.6499 17.6399 17.6499 17.3499 17.9399C17.0599 18.2299 17.0599 18.7099 17.3499 18.9999L20.38 22.0299C20.53 22.1799 20.7199 22.2499 20.9099 22.2499C21.0999 22.2499 21.29 22.1799 21.44 22.0299C21.73 21.7399 21.73 21.2599 21.44 20.9699Z" fill="#FFF500"/>
</svg>
