<svg width="40" height="40" viewBox="0 0 40 40" fill="none" xmlns="http://www.w3.org/2000/svg">
<path opacity="0.8" d="M26.9833 3.33337H13.0166C6.94992 3.33337 3.33325 6.95004 3.33325 13.0167V26.9667C3.33325 33.05 6.94992 36.6667 13.0166 36.6667H26.9666C33.0333 36.6667 36.6499 33.05 36.6499 26.9834V13.0167C36.6666 6.95004 33.0499 3.33337 26.9833 3.33337Z" fill="#007BFF"/>
<path d="M22.1001 27.1334C21.7834 27.1334 21.4668 27.0167 21.2168 26.7667L15.3334 20.8833C14.8501 20.4 14.8501 19.6 15.3334 19.1167L21.2168 13.2333C21.7001 12.75 22.5001 12.75 22.9834 13.2333C23.4668 13.7167 23.4668 14.5167 22.9834 15L17.9834 20L22.9834 25C23.4668 25.4834 23.4668 26.2833 22.9834 26.7667C22.7501 27.0167 22.4334 27.1334 22.1001 27.1334Z" fill="white"/>
</svg>
