<svg width="24" height="25" viewBox="0 0 24 25" fill="none" xmlns="http://www.w3.org/2000/svg">
<path d="M12.0201 21.0299C9.69011 21.0299 7.36011 20.6599 5.15011 19.9199C4.31011 19.6299 3.67011 19.0399 3.39011 18.2699C3.10011 17.4999 3.20011 16.6499 3.66011 15.8899L4.81011 13.9799C5.05011 13.5799 5.27011 12.7799 5.27011 12.3099V9.41992C5.27011 5.69992 8.30011 2.66992 12.0201 2.66992C15.7401 2.66992 18.7701 5.69992 18.7701 9.41992V12.3099C18.7701 12.7699 18.9901 13.5799 19.2301 13.9899L20.3701 15.8899C20.8001 16.6099 20.8801 17.4799 20.5901 18.2699C20.3001 19.0599 19.6701 19.6599 18.8801 19.9199C16.6801 20.6599 14.3501 21.0299 12.0201 21.0299ZM12.0201 4.16992C9.13011 4.16992 6.77011 6.51992 6.77011 9.41992V12.3099C6.77011 13.0399 6.47011 14.1199 6.10011 14.7499L4.95011 16.6599C4.73011 17.0299 4.67011 17.4199 4.80011 17.7499C4.92011 18.0899 5.22011 18.3499 5.63011 18.4899C9.81011 19.8899 14.2401 19.8899 18.4201 18.4899C18.7801 18.3699 19.0601 18.0999 19.1901 17.7399C19.3201 17.3799 19.2901 16.9899 19.0901 16.6599L17.9401 14.7499C17.5601 14.0999 17.2701 13.0299 17.2701 12.2999V9.41992C17.2701 6.51992 14.9201 4.16992 12.0201 4.16992Z" fill="#007BFF"/>
<path d="M13.8801 4.43993C13.8101 4.43993 13.7401 4.42993 13.6701 4.40993C13.3801 4.32993 13.1001 4.26993 12.8301 4.22993C11.9801 4.11993 11.1601 4.17993 10.3901 4.40993C10.1101 4.49993 9.81011 4.40993 9.62011 4.19993C9.43011 3.98993 9.37011 3.68993 9.48011 3.41993C9.89011 2.36993 10.8901 1.67993 12.0301 1.67993C13.1701 1.67993 14.1701 2.35993 14.5801 3.41993C14.6801 3.68993 14.6301 3.98993 14.4401 4.19993C14.2901 4.35993 14.0801 4.43993 13.8801 4.43993Z" fill="#007BFF"/>
<path d="M12.02 23.3101C11.03 23.3101 10.07 22.9101 9.37002 22.2101C8.67002 21.5101 8.27002 20.5501 8.27002 19.5601H9.77002C9.77002 20.1501 10.01 20.7301 10.43 21.1501C10.85 21.5701 11.43 21.8101 12.02 21.8101C13.26 21.8101 14.27 20.8001 14.27 19.5601H15.77C15.77 21.6301 14.09 23.3101 12.02 23.3101Z" fill="#007BFF"/>
</svg>
