<svg width="40" height="41" viewBox="0 0 40 41" fill="none" xmlns="http://www.w3.org/2000/svg">
<path opacity="0.4" d="M28.0333 3.83325H11.9667C8.41666 3.83325 5.53333 6.73325 5.53333 10.2666V33.7499C5.53333 36.7499 7.68333 38.0166 10.3167 36.5666L18.45 32.0499C19.3167 31.5666 20.7167 31.5666 21.5667 32.0499L29.7 36.5666C32.3333 38.0333 34.4833 36.7666 34.4833 33.7499V10.2666C34.4667 6.73325 31.5833 3.83325 28.0333 3.83325Z" fill="white"/>
<path d="M24.1666 17H21.25V14.1833C21.25 13.5 20.6833 12.9333 20 12.9333C19.3166 12.9333 18.75 13.5 18.75 14.1833V17H15.8333C15.15 17 14.5833 17.5667 14.5833 18.25C14.5833 18.9333 15.15 19.5 15.8333 19.5H18.75V22.5167C18.75 23.2 19.3166 23.7667 20 23.7667C20.6833 23.7667 21.25 23.2 21.25 22.5167V19.5H24.1666C24.85 19.5 25.4166 18.9333 25.4166 18.25C25.4166 17.5667 24.85 17 24.1666 17Z" fill="white"/>
</svg>
